<svg xmlns="http://www.w3.org/2000/svg" viewBox="0 0 512 512">
  <defs>
    <linearGradient id="bg" x1="0%" y1="0%" x2="100%" y2="100%">
      <stop offset="0%" style="stop-color:#4E8B80"/>
      <stop offset="100%" style="stop-color:#3A7A6F"/>
    </linearGradient>
  </defs>
  <!-- Background -->
  <rect width="512" height="512" rx="100" fill="url(#bg)"/>
  <!-- Speech bubble -->
  <path d="M128 160 C128 134 149 112 176 112 L336 112 C362 112 384 134 384 160 L384 272 C384 298 362 320 336 320 L240 320 L192 368 L192 320 L176 320 C149 320 128 298 128 272 Z" fill="white" opacity="0.95"/>
  <!-- Brain symbol - simple circles to suggest neural/speech -->
  <circle cx="200" cy="216" r="28" fill="#4E8B80"/>
  <circle cx="256" cy="200" r="28" fill="#4E8B80"/>
  <circle cx="312" cy="216" r="28" fill="#4E8B80"/>
  <circle cx="228" cy="252" r="22" fill="#4E8B80"/>
  <circle cx="284" cy="252" r="22" fill="#4E8B80"/>
  <!-- Sound wave at bottom -->
  <path d="M160 420 Q200 395 256 420 Q312 445 352 420" stroke="white" stroke-width="12" fill="none" stroke-linecap="round" opacity="0.7"/>
  <path d="M180 445 Q220 425 256 445 Q292 465 332 445" stroke="white" stroke-width="10" fill="none" stroke-linecap="round" opacity="0.5"/>
</svg>
